<mxfile host="Electron" modified="2024-11-10T07:39:33.504Z" agent="Mozilla/5.0 (Windows NT 10.0; Win64; x64) AppleWebKit/537.36 (KHTML, like Gecko) draw.io/23.0.2 Chrome/120.0.6099.109 Electron/28.1.0 Safari/537.36" etag="QD4C_65_6PGwzndML1VG" version="23.0.2" type="device" pages="5">
  <diagram name="Top-Level Design" id="hd1mUG41yb4bRzRW5CYd">
    <mxGraphModel dx="4268" dy="1982" grid="1" gridSize="10" guides="1" tooltips="1" connect="1" arrows="1" fold="1" page="1" pageScale="1" pageWidth="850" pageHeight="1100" math="0" shadow="0">
      <root>
        <mxCell id="0" />
        <mxCell id="1" parent="0" />
        <mxCell id="2ahl8QOKRHuq4xcNMIc5-2" value="&lt;h1&gt;Text Embedding Application&lt;/h1&gt;&lt;p&gt;This application will deal with the generation of text embeddings and other operations you&#39;d typically do with embeddings.&lt;/p&gt;" style="text;html=1;strokeColor=#82b366;fillColor=#d5e8d4;spacing=5;spacingTop=-20;whiteSpace=wrap;overflow=hidden;rounded=0;align=center;verticalAlign=middle;" parent="1" vertex="1">
          <mxGeometry x="60" y="140" width="190" height="190" as="geometry" />
        </mxCell>
        <mxCell id="2ahl8QOKRHuq4xcNMIc5-8" style="edgeStyle=orthogonalEdgeStyle;rounded=0;orthogonalLoop=1;jettySize=auto;html=1;entryX=0.5;entryY=0;entryDx=0;entryDy=0;" parent="1" source="2ahl8QOKRHuq4xcNMIc5-3" target="2ahl8QOKRHuq4xcNMIc5-4" edge="1">
          <mxGeometry relative="1" as="geometry" />
        </mxCell>
        <mxCell id="2ahl8QOKRHuq4xcNMIc5-3" value="&lt;h1&gt;Vector Database Application&lt;/h1&gt;&lt;p&gt;This application will be a wrapper for the vector database.&lt;/p&gt;" style="text;html=1;strokeColor=#b85450;fillColor=#f8cecc;spacing=5;spacingTop=-20;whiteSpace=wrap;overflow=hidden;rounded=0;align=center;verticalAlign=middle;" parent="1" vertex="1">
          <mxGeometry x="320" y="140" width="190" height="190" as="geometry" />
        </mxCell>
        <mxCell id="2ahl8QOKRHuq4xcNMIc5-4" value="&lt;h1&gt;Vector Database&lt;/h1&gt;&lt;p&gt;The concrete vector database to store embeddings.&lt;/p&gt;" style="text;html=1;strokeColor=#b85450;fillColor=#f8cecc;spacing=5;spacingTop=-20;whiteSpace=wrap;overflow=hidden;rounded=0;align=center;verticalAlign=middle;" parent="1" vertex="1">
          <mxGeometry x="320" y="380" width="190" height="120" as="geometry" />
        </mxCell>
        <mxCell id="2ahl8QOKRHuq4xcNMIc5-6" style="edgeStyle=orthogonalEdgeStyle;rounded=0;orthogonalLoop=1;jettySize=auto;html=1;entryX=0.5;entryY=0;entryDx=0;entryDy=0;" parent="1" target="2ahl8QOKRHuq4xcNMIc5-2" edge="1">
          <mxGeometry relative="1" as="geometry">
            <mxPoint x="260" y="35" as="sourcePoint" />
          </mxGeometry>
        </mxCell>
        <mxCell id="2ahl8QOKRHuq4xcNMIc5-7" style="edgeStyle=orthogonalEdgeStyle;rounded=0;orthogonalLoop=1;jettySize=auto;html=1;entryX=0.5;entryY=0;entryDx=0;entryDy=0;" parent="1" target="2ahl8QOKRHuq4xcNMIc5-3" edge="1">
          <mxGeometry relative="1" as="geometry">
            <mxPoint x="320" y="35" as="sourcePoint" />
            <Array as="points">
              <mxPoint x="415" y="35" />
            </Array>
          </mxGeometry>
        </mxCell>
        <mxCell id="2ahl8QOKRHuq4xcNMIc5-9" value="Backend Server" style="text;html=1;strokeColor=none;fillColor=none;align=center;verticalAlign=middle;whiteSpace=wrap;rounded=0;fontStyle=1;fontSize=24;" parent="1" vertex="1">
          <mxGeometry x="260" y="20" width="60" height="30" as="geometry" />
        </mxCell>
        <mxCell id="2ahl8QOKRHuq4xcNMIc5-10" value="User-Exposed" style="rounded=0;whiteSpace=wrap;html=1;fillColor=#d5e8d4;strokeColor=#82b366;" parent="1" vertex="1">
          <mxGeometry x="-120" y="20" width="120" height="40" as="geometry" />
        </mxCell>
        <mxCell id="2ahl8QOKRHuq4xcNMIc5-11" value="Internal" style="rounded=0;whiteSpace=wrap;html=1;fillColor=#f8cecc;strokeColor=#b85450;" parent="1" vertex="1">
          <mxGeometry x="-120" y="80" width="120" height="40" as="geometry" />
        </mxCell>
        <mxCell id="2ahl8QOKRHuq4xcNMIc5-12" value="&lt;h1&gt;User Features&lt;/h1&gt;&lt;div&gt;- Create Embeddings&lt;/div&gt;&lt;div&gt;- Store Embeddings&lt;/div&gt;&lt;div&gt;- Search using dense retrieval&lt;/div&gt;" style="text;html=1;strokeColor=#82b366;fillColor=#d5e8d4;spacing=5;spacingTop=-20;whiteSpace=wrap;overflow=hidden;rounded=0;align=center;verticalAlign=middle;" parent="1" vertex="1">
          <mxGeometry x="670" y="140" width="190" height="120" as="geometry" />
        </mxCell>
        <mxCell id="2ahl8QOKRHuq4xcNMIc5-14" style="edgeStyle=orthogonalEdgeStyle;rounded=0;orthogonalLoop=1;jettySize=auto;html=1;entryX=0.5;entryY=0;entryDx=0;entryDy=0;" parent="1" target="2ahl8QOKRHuq4xcNMIc5-12" edge="1">
          <mxGeometry relative="1" as="geometry">
            <mxPoint x="765" y="80" as="sourcePoint" />
          </mxGeometry>
        </mxCell>
        <mxCell id="2ahl8QOKRHuq4xcNMIc5-13" value="Front-End Application" style="text;html=1;strokeColor=none;fillColor=none;align=center;verticalAlign=middle;whiteSpace=wrap;rounded=0;fontStyle=1;fontSize=24;" parent="1" vertex="1">
          <mxGeometry x="735" y="30" width="60" height="30" as="geometry" />
        </mxCell>
        <mxCell id="liYcKKxzvOy-O4FJpdif-2" value="&lt;h1&gt;Sample Database&lt;/h1&gt;&lt;p&gt;This database is going to store the text indexed by the rowId of their embeddings.&lt;/p&gt;" style="text;html=1;strokeColor=#b85450;fillColor=#f8cecc;spacing=5;spacingTop=-20;whiteSpace=wrap;overflow=hidden;rounded=0;align=center;verticalAlign=middle;" parent="1" vertex="1">
          <mxGeometry x="80" y="380" width="210" height="120" as="geometry" />
        </mxCell>
        <mxCell id="liYcKKxzvOy-O4FJpdif-3" value="" style="endArrow=none;html=1;rounded=0;exitX=1;exitY=0.5;exitDx=0;exitDy=0;entryX=0;entryY=0.5;entryDx=0;entryDy=0;" parent="1" source="liYcKKxzvOy-O4FJpdif-2" target="2ahl8QOKRHuq4xcNMIc5-4" edge="1">
          <mxGeometry width="50" height="50" relative="1" as="geometry">
            <mxPoint x="480" y="240" as="sourcePoint" />
            <mxPoint x="530" y="190" as="targetPoint" />
          </mxGeometry>
        </mxCell>
      </root>
    </mxGraphModel>
  </diagram>
  <diagram id="9rvUI02QKTeQ2sJ_j-MA" name="Vector Database Application">
    <mxGraphModel dx="1434" dy="836" grid="1" gridSize="10" guides="1" tooltips="1" connect="1" arrows="1" fold="1" page="1" pageScale="1" pageWidth="850" pageHeight="1100" math="0" shadow="0">
      <root>
        <mxCell id="0" />
        <mxCell id="1" parent="0" />
        <mxCell id="XVpDl-Gx5MaSG0OQffbl-14" value="&lt;h1&gt;VectorDatabase&lt;/h1&gt;&lt;p&gt;&lt;u&gt;Fields&lt;/u&gt;&lt;/p&gt;&lt;p&gt;+ DbName: String&lt;/p&gt;&lt;p&gt;+ EmbeddingSize: Integer&lt;/p&gt;&lt;p&gt;- Db: Connection&lt;/p&gt;&lt;p&gt;- EmbeddingTableName = TEXT_EMBEDDINGS&lt;/p&gt;&lt;p&gt;+ sampleDb: SampleDatabase&lt;/p&gt;&lt;p&gt;&lt;u&gt;Methods&lt;/u&gt;&lt;/p&gt;&lt;p&gt;+ VectorDatabase(DbName,&amp;nbsp; EmbeddingSize)&lt;/p&gt;&lt;p&gt;- getDb()&lt;/p&gt;&lt;p&gt;+ insertEmbedding(Embedding): rowId&lt;/p&gt;&lt;p&gt;+ executeInstruction(SQL Statement, ... parameters)&lt;/p&gt;" style="text;html=1;strokeColor=none;fillColor=none;spacing=5;spacingTop=-20;whiteSpace=wrap;overflow=hidden;rounded=0;" parent="1" vertex="1">
          <mxGeometry x="50" y="140" width="300" height="390" as="geometry" />
        </mxCell>
        <mxCell id="XVpDl-Gx5MaSG0OQffbl-15" value="&lt;h1&gt;VecDbApp&lt;/h1&gt;&lt;p&gt;&lt;u&gt;Methods&lt;/u&gt;&lt;/p&gt;&lt;p&gt;+ knnSearch(VectorDatabase, Text): Rows&lt;/p&gt;&lt;p&gt;+ chunkAndStore(VectorDatabase, Text, Metadata)&lt;/p&gt;" style="text;html=1;strokeColor=none;fillColor=none;spacing=5;spacingTop=-20;whiteSpace=wrap;overflow=hidden;rounded=0;" parent="1" vertex="1">
          <mxGeometry x="440" y="140" width="290" height="120" as="geometry" />
        </mxCell>
        <mxCell id="diWaYefu0Lw1R7bqqatk-1" value="&lt;h1&gt;SampleDatabase&lt;/h1&gt;&lt;p&gt;&lt;u&gt;Fields&lt;/u&gt;&lt;/p&gt;&lt;p&gt;+ DbName: String&lt;/p&gt;&lt;p&gt;&lt;u&gt;Methods&lt;/u&gt;&lt;/p&gt;&lt;p&gt;+ insertSample(rowId, Text)&lt;/p&gt;" style="text;html=1;strokeColor=none;fillColor=none;spacing=5;spacingTop=-20;whiteSpace=wrap;overflow=hidden;rounded=0;" parent="1" vertex="1">
          <mxGeometry x="50" y="550" width="300" height="160" as="geometry" />
        </mxCell>
        <mxCell id="Vmh7B_RaE82MHIhzZwlb-1" value="&lt;h1&gt;MetadataDatabase&lt;/h1&gt;&lt;p&gt;{&lt;/p&gt;&lt;p&gt;&lt;span style=&quot;white-space: pre;&quot;&gt;&#x9;&lt;/span&gt;id: Int,&lt;br&gt;&lt;/p&gt;&lt;p&gt;&lt;span style=&quot;white-space: pre;&quot;&gt;&#x9;&lt;/span&gt;label: String,&lt;br&gt;&lt;/p&gt;&lt;p&gt;&lt;span style=&quot;white-space: pre;&quot;&gt;&#x9;&lt;/span&gt;data: String (JSON)&lt;br&gt;&lt;/p&gt;&lt;p&gt;}&lt;/p&gt;" style="text;html=1;strokeColor=none;fillColor=none;spacing=5;spacingTop=-20;whiteSpace=wrap;overflow=hidden;rounded=0;" vertex="1" parent="1">
          <mxGeometry x="510" y="540" width="270" height="170" as="geometry" />
        </mxCell>
      </root>
    </mxGraphModel>
  </diagram>
  <diagram id="bteLEKPCUTbBAW_GtSXE" name="Text Embedding Application">
    <mxGraphModel dx="1434" dy="836" grid="1" gridSize="10" guides="1" tooltips="1" connect="1" arrows="1" fold="1" page="1" pageScale="1" pageWidth="850" pageHeight="1100" math="0" shadow="0">
      <root>
        <mxCell id="0" />
        <mxCell id="1" parent="0" />
        <mxCell id="0PPscyVI64YcWeKoR0v3-2" value="&lt;h1&gt;Text-Embedding Application (REST APIs)&lt;/h1&gt;&lt;p&gt;&lt;u&gt;- /embeddings/generate&lt;/u&gt;&lt;/p&gt;&lt;p&gt;REQ: { text: String }&lt;/p&gt;&lt;p&gt;RES: { message: String }&lt;/p&gt;&lt;p&gt;&lt;u&gt;- /embeddings/store&lt;/u&gt;&lt;/p&gt;&lt;p&gt;REQ: { text: String }&lt;/p&gt;&lt;p&gt;RES: { message: String }&lt;/p&gt;&lt;p&gt;-/embeddings/retrieve/&amp;lt;id:int&amp;gt;&lt;/p&gt;&lt;p&gt;REQ: { id: Int }&lt;/p&gt;&lt;p&gt;RES: { message: String }&lt;/p&gt;&lt;p&gt;&lt;u&gt;- /text/search&lt;/u&gt;&lt;/p&gt;&lt;p&gt;REQ: { text: String }&lt;/p&gt;&lt;p&gt;RES: { results: { [ rowId, String ] } }&lt;/p&gt;&lt;p&gt;&lt;u&gt;- /text/all&lt;/u&gt;&lt;/p&gt;&lt;p&gt;RES: { data: [ { rowId, String } ] }&lt;/p&gt;&lt;p&gt;&lt;u&gt;- /embeddings/store?chunking=true&lt;/u&gt;&lt;/p&gt;&lt;p&gt;REQ: { text: String, chunkDelimiter: &quot;&quot;,&amp;nbsp; metadata: { label: &quot;&quot;, ... } }&lt;/p&gt;&lt;p&gt;RES: { message: String } , { error: String }&lt;/p&gt;" style="text;html=1;strokeColor=none;fillColor=none;spacing=5;spacingTop=-20;whiteSpace=wrap;overflow=hidden;rounded=0;" parent="1" vertex="1">
          <mxGeometry x="160" y="240" width="300" height="710" as="geometry" />
        </mxCell>
      </root>
    </mxGraphModel>
  </diagram>
  <diagram id="mI8Ti9KayS0FQNibFEBD" name="Front-end desing of application">
    <mxGraphModel dx="1709" dy="991" grid="1" gridSize="10" guides="1" tooltips="1" connect="1" arrows="1" fold="1" page="1" pageScale="1" pageWidth="850" pageHeight="1100" math="0" shadow="0">
      <root>
        <mxCell id="0" />
        <mxCell id="1" parent="0" />
        <mxCell id="Oiz9nsk00buNu5-l6Fzp-2" value="Stored Data (RowId, Sample Text)" style="shape=table;startSize=30;container=1;collapsible=0;childLayout=tableLayout;strokeColor=default;fontSize=16;" parent="1" vertex="1">
          <mxGeometry x="430" y="240" width="320" height="280" as="geometry" />
        </mxCell>
        <mxCell id="Oiz9nsk00buNu5-l6Fzp-3" value="" style="shape=tableRow;horizontal=0;startSize=0;swimlaneHead=0;swimlaneBody=0;strokeColor=inherit;top=0;left=0;bottom=0;right=0;collapsible=0;dropTarget=0;fillColor=none;points=[[0,0.5],[1,0.5]];portConstraint=eastwest;fontSize=16;" parent="Oiz9nsk00buNu5-l6Fzp-2" vertex="1">
          <mxGeometry y="30" width="320" height="83" as="geometry" />
        </mxCell>
        <mxCell id="Oiz9nsk00buNu5-l6Fzp-4" value="" style="shape=partialRectangle;html=1;whiteSpace=wrap;connectable=0;strokeColor=inherit;overflow=hidden;fillColor=none;top=0;left=0;bottom=0;right=0;pointerEvents=1;fontSize=16;" parent="Oiz9nsk00buNu5-l6Fzp-3" vertex="1">
          <mxGeometry width="107" height="83" as="geometry">
            <mxRectangle width="107" height="83" as="alternateBounds" />
          </mxGeometry>
        </mxCell>
        <mxCell id="Oiz9nsk00buNu5-l6Fzp-5" value="" style="shape=partialRectangle;html=1;whiteSpace=wrap;connectable=0;strokeColor=inherit;overflow=hidden;fillColor=none;top=0;left=0;bottom=0;right=0;pointerEvents=1;fontSize=16;" parent="Oiz9nsk00buNu5-l6Fzp-3" vertex="1">
          <mxGeometry x="107" width="106" height="83" as="geometry">
            <mxRectangle width="106" height="83" as="alternateBounds" />
          </mxGeometry>
        </mxCell>
        <mxCell id="Oiz9nsk00buNu5-l6Fzp-6" value="" style="shape=partialRectangle;html=1;whiteSpace=wrap;connectable=0;strokeColor=inherit;overflow=hidden;fillColor=none;top=0;left=0;bottom=0;right=0;pointerEvents=1;fontSize=16;" parent="Oiz9nsk00buNu5-l6Fzp-3" vertex="1">
          <mxGeometry x="213" width="107" height="83" as="geometry">
            <mxRectangle width="107" height="83" as="alternateBounds" />
          </mxGeometry>
        </mxCell>
        <mxCell id="Oiz9nsk00buNu5-l6Fzp-7" value="" style="shape=tableRow;horizontal=0;startSize=0;swimlaneHead=0;swimlaneBody=0;strokeColor=inherit;top=0;left=0;bottom=0;right=0;collapsible=0;dropTarget=0;fillColor=none;points=[[0,0.5],[1,0.5]];portConstraint=eastwest;fontSize=16;" parent="Oiz9nsk00buNu5-l6Fzp-2" vertex="1">
          <mxGeometry y="113" width="320" height="84" as="geometry" />
        </mxCell>
        <mxCell id="Oiz9nsk00buNu5-l6Fzp-8" value="" style="shape=partialRectangle;html=1;whiteSpace=wrap;connectable=0;strokeColor=inherit;overflow=hidden;fillColor=none;top=0;left=0;bottom=0;right=0;pointerEvents=1;fontSize=16;" parent="Oiz9nsk00buNu5-l6Fzp-7" vertex="1">
          <mxGeometry width="107" height="84" as="geometry">
            <mxRectangle width="107" height="84" as="alternateBounds" />
          </mxGeometry>
        </mxCell>
        <mxCell id="Oiz9nsk00buNu5-l6Fzp-9" value="" style="shape=partialRectangle;html=1;whiteSpace=wrap;connectable=0;strokeColor=inherit;overflow=hidden;fillColor=none;top=0;left=0;bottom=0;right=0;pointerEvents=1;fontSize=16;" parent="Oiz9nsk00buNu5-l6Fzp-7" vertex="1">
          <mxGeometry x="107" width="106" height="84" as="geometry">
            <mxRectangle width="106" height="84" as="alternateBounds" />
          </mxGeometry>
        </mxCell>
        <mxCell id="Oiz9nsk00buNu5-l6Fzp-10" value="" style="shape=partialRectangle;html=1;whiteSpace=wrap;connectable=0;strokeColor=inherit;overflow=hidden;fillColor=none;top=0;left=0;bottom=0;right=0;pointerEvents=1;fontSize=16;" parent="Oiz9nsk00buNu5-l6Fzp-7" vertex="1">
          <mxGeometry x="213" width="107" height="84" as="geometry">
            <mxRectangle width="107" height="84" as="alternateBounds" />
          </mxGeometry>
        </mxCell>
        <mxCell id="Oiz9nsk00buNu5-l6Fzp-11" value="" style="shape=tableRow;horizontal=0;startSize=0;swimlaneHead=0;swimlaneBody=0;strokeColor=inherit;top=0;left=0;bottom=0;right=0;collapsible=0;dropTarget=0;fillColor=none;points=[[0,0.5],[1,0.5]];portConstraint=eastwest;fontSize=16;" parent="Oiz9nsk00buNu5-l6Fzp-2" vertex="1">
          <mxGeometry y="197" width="320" height="83" as="geometry" />
        </mxCell>
        <mxCell id="Oiz9nsk00buNu5-l6Fzp-12" value="" style="shape=partialRectangle;html=1;whiteSpace=wrap;connectable=0;strokeColor=inherit;overflow=hidden;fillColor=none;top=0;left=0;bottom=0;right=0;pointerEvents=1;fontSize=16;" parent="Oiz9nsk00buNu5-l6Fzp-11" vertex="1">
          <mxGeometry width="107" height="83" as="geometry">
            <mxRectangle width="107" height="83" as="alternateBounds" />
          </mxGeometry>
        </mxCell>
        <mxCell id="Oiz9nsk00buNu5-l6Fzp-13" value="" style="shape=partialRectangle;html=1;whiteSpace=wrap;connectable=0;strokeColor=inherit;overflow=hidden;fillColor=none;top=0;left=0;bottom=0;right=0;pointerEvents=1;fontSize=16;" parent="Oiz9nsk00buNu5-l6Fzp-11" vertex="1">
          <mxGeometry x="107" width="106" height="83" as="geometry">
            <mxRectangle width="106" height="83" as="alternateBounds" />
          </mxGeometry>
        </mxCell>
        <mxCell id="Oiz9nsk00buNu5-l6Fzp-14" value="" style="shape=partialRectangle;html=1;whiteSpace=wrap;connectable=0;strokeColor=inherit;overflow=hidden;fillColor=none;top=0;left=0;bottom=0;right=0;pointerEvents=1;fontSize=16;" parent="Oiz9nsk00buNu5-l6Fzp-11" vertex="1">
          <mxGeometry x="213" width="107" height="83" as="geometry">
            <mxRectangle width="107" height="83" as="alternateBounds" />
          </mxGeometry>
        </mxCell>
        <mxCell id="Oiz9nsk00buNu5-l6Fzp-15" value="Enter Text to Store" style="fillColor=none;strokeColor=none;html=1;fontSize=11;fontStyle=0;align=left;fontColor=#596780;fontStyle=1;fontSize=11" parent="1" vertex="1">
          <mxGeometry x="70" y="240" width="240" height="20" as="geometry" />
        </mxCell>
        <mxCell id="Oiz9nsk00buNu5-l6Fzp-16" value="My text" style="rounded=1;arcSize=9;fillColor=#F7F8F9;align=left;spacingLeft=5;strokeColor=#DEE1E6;html=1;strokeWidth=2;fontSize=12" parent="1" vertex="1">
          <mxGeometry x="70" y="265" width="290" height="155" as="geometry" />
        </mxCell>
        <mxCell id="Oiz9nsk00buNu5-l6Fzp-17" value="Convert &amp;amp; Store" style="rounded=1;html=1;shadow=0;dashed=0;whiteSpace=wrap;fontSize=10;fillColor=#999999;align=center;strokeColor=#666666;fontColor=#ffffff;strokeWidth=2;" parent="1" vertex="1">
          <mxGeometry x="70" y="440" width="130" height="40" as="geometry" />
        </mxCell>
        <mxCell id="Oiz9nsk00buNu5-l6Fzp-18" value="Scrollable" style="text;html=1;strokeColor=none;fillColor=none;align=center;verticalAlign=middle;whiteSpace=wrap;rounded=0;" parent="1" vertex="1">
          <mxGeometry x="740" y="350" width="60" height="30" as="geometry" />
        </mxCell>
        <mxCell id="Oiz9nsk00buNu5-l6Fzp-19" value="" style="rounded=0;whiteSpace=wrap;html=1;fillColor=none;dashed=1;" parent="1" vertex="1">
          <mxGeometry x="40" y="160" width="790" height="460" as="geometry" />
        </mxCell>
        <mxCell id="Oiz9nsk00buNu5-l6Fzp-20" value="Data Operation Page" style="text;html=1;align=left;verticalAlign=middle;resizable=0;points=[];autosize=1;strokeColor=none;fillColor=none;" parent="1" vertex="1">
          <mxGeometry x="40" y="130" width="140" height="30" as="geometry" />
        </mxCell>
        <mxCell id="Oiz9nsk00buNu5-l6Fzp-21" value="Enter your Text" style="rounded=0;whiteSpace=wrap;html=1;" parent="1" vertex="1">
          <mxGeometry x="1060" y="190" width="340" height="40" as="geometry" />
        </mxCell>
        <mxCell id="Oiz9nsk00buNu5-l6Fzp-22" value="Search" style="text;html=1;strokeColor=none;fillColor=none;align=center;verticalAlign=middle;whiteSpace=wrap;rounded=0;" parent="1" vertex="1">
          <mxGeometry x="1000" y="195" width="60" height="30" as="geometry" />
        </mxCell>
        <mxCell id="Oiz9nsk00buNu5-l6Fzp-23" value="Search" style="rounded=1;fillColor=#0057D8;strokeColor=none;html=1;whiteSpace=wrap;fontColor=#ffffff;align=center;verticalAlign=middle;fontStyle=0;fontSize=12;sketch=0;" parent="1" vertex="1">
          <mxGeometry x="1414" y="190" width="86" height="40" as="geometry" />
        </mxCell>
        <mxCell id="Oiz9nsk00buNu5-l6Fzp-25" value="Settings" style="text;html=1;strokeColor=none;fillColor=none;align=center;verticalAlign=middle;whiteSpace=wrap;rounded=0;fontStyle=4" parent="1" vertex="1">
          <mxGeometry x="675" y="710" width="60" height="30" as="geometry" />
        </mxCell>
        <mxCell id="Oiz9nsk00buNu5-l6Fzp-26" value="Data Operations" style="text;html=1;strokeColor=none;fillColor=none;align=center;verticalAlign=middle;whiteSpace=wrap;rounded=0;fontStyle=4" parent="1" vertex="1">
          <mxGeometry x="560" y="710" width="102" height="30" as="geometry" />
        </mxCell>
        <mxCell id="Oiz9nsk00buNu5-l6Fzp-28" value="Main Landing Page" style="text;html=1;align=left;verticalAlign=middle;resizable=0;points=[];autosize=1;strokeColor=none;fillColor=none;" parent="1" vertex="1">
          <mxGeometry x="40" y="670" width="130" height="30" as="geometry" />
        </mxCell>
        <mxCell id="Oiz9nsk00buNu5-l6Fzp-29" value="&lt;h1&gt;Result - 1&lt;/h1&gt;&lt;p&gt;result text&lt;/p&gt;" style="text;html=1;strokeColor=none;fillColor=none;spacing=5;spacingTop=-20;whiteSpace=wrap;overflow=hidden;rounded=0;" parent="1" vertex="1">
          <mxGeometry x="1060" y="260" width="190" height="80" as="geometry" />
        </mxCell>
        <mxCell id="Oiz9nsk00buNu5-l6Fzp-30" value="&lt;h1&gt;Result - 2&lt;/h1&gt;&lt;p&gt;result text&lt;/p&gt;" style="text;html=1;strokeColor=none;fillColor=none;spacing=5;spacingTop=-20;whiteSpace=wrap;overflow=hidden;rounded=0;" parent="1" vertex="1">
          <mxGeometry x="1060" y="350" width="190" height="80" as="geometry" />
        </mxCell>
        <mxCell id="Oiz9nsk00buNu5-l6Fzp-31" value="&lt;h1&gt;Result - 3&lt;/h1&gt;&lt;p&gt;result text&lt;/p&gt;" style="text;html=1;strokeColor=none;fillColor=none;spacing=5;spacingTop=-20;whiteSpace=wrap;overflow=hidden;rounded=0;" parent="1" vertex="1">
          <mxGeometry x="1060" y="440" width="190" height="80" as="geometry" />
        </mxCell>
        <mxCell id="Oiz9nsk00buNu5-l6Fzp-32" value="&lt;h1&gt;Result - 4&lt;/h1&gt;&lt;p&gt;result text&lt;/p&gt;" style="text;html=1;strokeColor=none;fillColor=none;spacing=5;spacingTop=-20;whiteSpace=wrap;overflow=hidden;rounded=0;" parent="1" vertex="1">
          <mxGeometry x="1060" y="530" width="190" height="80" as="geometry" />
        </mxCell>
        <mxCell id="Oiz9nsk00buNu5-l6Fzp-33" value="Enter your Text" style="rounded=0;whiteSpace=wrap;html=1;" parent="1" vertex="1">
          <mxGeometry x="240" y="890" width="340" height="40" as="geometry" />
        </mxCell>
        <mxCell id="Oiz9nsk00buNu5-l6Fzp-34" value="Search" style="text;html=1;strokeColor=none;fillColor=none;align=center;verticalAlign=middle;whiteSpace=wrap;rounded=0;" parent="1" vertex="1">
          <mxGeometry x="180" y="895" width="60" height="30" as="geometry" />
        </mxCell>
        <mxCell id="Oiz9nsk00buNu5-l6Fzp-35" value="Search" style="rounded=1;fillColor=#0057D8;strokeColor=none;html=1;whiteSpace=wrap;fontColor=#ffffff;align=center;verticalAlign=middle;fontStyle=0;fontSize=12;sketch=0;" parent="1" vertex="1">
          <mxGeometry x="594" y="890" width="86" height="40" as="geometry" />
        </mxCell>
        <mxCell id="Oiz9nsk00buNu5-l6Fzp-37" value="Settings" style="text;html=1;strokeColor=none;fillColor=none;align=center;verticalAlign=middle;whiteSpace=wrap;rounded=0;fontStyle=4" parent="1" vertex="1">
          <mxGeometry x="1545" y="140" width="60" height="30" as="geometry" />
        </mxCell>
        <mxCell id="Oiz9nsk00buNu5-l6Fzp-38" value="Data Operations" style="text;html=1;strokeColor=none;fillColor=none;align=center;verticalAlign=middle;whiteSpace=wrap;rounded=0;fontStyle=4" parent="1" vertex="1">
          <mxGeometry x="1430" y="140" width="102" height="30" as="geometry" />
        </mxCell>
        <mxCell id="Oiz9nsk00buNu5-l6Fzp-39" value="" style="rounded=0;whiteSpace=wrap;html=1;fillColor=none;dashed=1;" parent="1" vertex="1">
          <mxGeometry x="910" y="140" width="790" height="480" as="geometry" />
        </mxCell>
        <mxCell id="Oiz9nsk00buNu5-l6Fzp-40" value="" style="rounded=0;whiteSpace=wrap;html=1;fillColor=none;dashed=1;" parent="1" vertex="1">
          <mxGeometry x="30" y="700" width="790" height="460" as="geometry" />
        </mxCell>
      </root>
    </mxGraphModel>
  </diagram>
  <diagram id="T2moJN9mI5DDfqbRRWYC" name="Chunking">
    <mxGraphModel dx="1709" dy="991" grid="1" gridSize="10" guides="1" tooltips="1" connect="1" arrows="1" fold="1" page="1" pageScale="1" pageWidth="850" pageHeight="1100" math="0" shadow="0">
      <root>
        <mxCell id="0" />
        <mxCell id="1" parent="0" />
        <mxCell id="z4E-oc9OXk6ii_VcmhzM-6" style="edgeStyle=orthogonalEdgeStyle;rounded=0;orthogonalLoop=1;jettySize=auto;html=1;entryX=0.5;entryY=0;entryDx=0;entryDy=0;" parent="1" source="z4E-oc9OXk6ii_VcmhzM-1" target="z4E-oc9OXk6ii_VcmhzM-2" edge="1">
          <mxGeometry relative="1" as="geometry">
            <Array as="points">
              <mxPoint x="200" y="160" />
            </Array>
          </mxGeometry>
        </mxCell>
        <mxCell id="z4E-oc9OXk6ii_VcmhzM-7" style="edgeStyle=orthogonalEdgeStyle;rounded=0;orthogonalLoop=1;jettySize=auto;html=1;entryX=0.5;entryY=0;entryDx=0;entryDy=0;" parent="1" source="z4E-oc9OXk6ii_VcmhzM-1" target="z4E-oc9OXk6ii_VcmhzM-3" edge="1">
          <mxGeometry relative="1" as="geometry" />
        </mxCell>
        <mxCell id="z4E-oc9OXk6ii_VcmhzM-8" style="edgeStyle=orthogonalEdgeStyle;rounded=0;orthogonalLoop=1;jettySize=auto;html=1;entryX=0.5;entryY=0;entryDx=0;entryDy=0;" parent="1" source="z4E-oc9OXk6ii_VcmhzM-1" target="z4E-oc9OXk6ii_VcmhzM-4" edge="1">
          <mxGeometry relative="1" as="geometry" />
        </mxCell>
        <mxCell id="z4E-oc9OXk6ii_VcmhzM-9" style="edgeStyle=orthogonalEdgeStyle;rounded=0;orthogonalLoop=1;jettySize=auto;html=1;entryX=0.5;entryY=0;entryDx=0;entryDy=0;" parent="1" source="z4E-oc9OXk6ii_VcmhzM-1" target="z4E-oc9OXk6ii_VcmhzM-5" edge="1">
          <mxGeometry relative="1" as="geometry">
            <Array as="points">
              <mxPoint x="560" y="160" />
            </Array>
          </mxGeometry>
        </mxCell>
        <mxCell id="z4E-oc9OXk6ii_VcmhzM-17" style="edgeStyle=orthogonalEdgeStyle;rounded=0;orthogonalLoop=1;jettySize=auto;html=1;" parent="1" source="z4E-oc9OXk6ii_VcmhzM-1" edge="1">
          <mxGeometry relative="1" as="geometry">
            <mxPoint x="630" y="140" as="targetPoint" />
          </mxGeometry>
        </mxCell>
        <mxCell id="z4E-oc9OXk6ii_VcmhzM-1" value="Sample Text" style="rounded=0;whiteSpace=wrap;html=1;fillColor=#d5e8d4;strokeColor=#82b366;" parent="1" vertex="1">
          <mxGeometry x="320" y="120" width="120" height="40" as="geometry" />
        </mxCell>
        <mxCell id="z4E-oc9OXk6ii_VcmhzM-11" style="edgeStyle=orthogonalEdgeStyle;rounded=0;orthogonalLoop=1;jettySize=auto;html=1;entryX=0;entryY=0.5;entryDx=0;entryDy=0;" parent="1" source="z4E-oc9OXk6ii_VcmhzM-2" target="z4E-oc9OXk6ii_VcmhzM-10" edge="1">
          <mxGeometry relative="1" as="geometry">
            <Array as="points">
              <mxPoint x="200" y="310" />
            </Array>
          </mxGeometry>
        </mxCell>
        <mxCell id="z4E-oc9OXk6ii_VcmhzM-2" value="Chunk" style="rounded=1;whiteSpace=wrap;html=1;fillColor=#60a917;fontColor=#ffffff;strokeColor=#2D7600;" parent="1" vertex="1">
          <mxGeometry x="160" y="200" width="80" height="40" as="geometry" />
        </mxCell>
        <mxCell id="z4E-oc9OXk6ii_VcmhzM-12" style="edgeStyle=orthogonalEdgeStyle;rounded=0;orthogonalLoop=1;jettySize=auto;html=1;entryX=0.5;entryY=0;entryDx=0;entryDy=0;" parent="1" source="z4E-oc9OXk6ii_VcmhzM-3" target="z4E-oc9OXk6ii_VcmhzM-10" edge="1">
          <mxGeometry relative="1" as="geometry" />
        </mxCell>
        <mxCell id="z4E-oc9OXk6ii_VcmhzM-3" value="Chunk" style="rounded=1;whiteSpace=wrap;html=1;fillColor=#60a917;fontColor=#ffffff;strokeColor=#2D7600;" parent="1" vertex="1">
          <mxGeometry x="280" y="200" width="80" height="40" as="geometry" />
        </mxCell>
        <mxCell id="z4E-oc9OXk6ii_VcmhzM-13" style="edgeStyle=orthogonalEdgeStyle;rounded=0;orthogonalLoop=1;jettySize=auto;html=1;entryX=0.5;entryY=0;entryDx=0;entryDy=0;" parent="1" source="z4E-oc9OXk6ii_VcmhzM-4" target="z4E-oc9OXk6ii_VcmhzM-10" edge="1">
          <mxGeometry relative="1" as="geometry" />
        </mxCell>
        <mxCell id="z4E-oc9OXk6ii_VcmhzM-4" value="Chunk" style="rounded=1;whiteSpace=wrap;html=1;fillColor=#60a917;fontColor=#ffffff;strokeColor=#2D7600;" parent="1" vertex="1">
          <mxGeometry x="400" y="200" width="80" height="40" as="geometry" />
        </mxCell>
        <mxCell id="z4E-oc9OXk6ii_VcmhzM-14" style="edgeStyle=orthogonalEdgeStyle;rounded=0;orthogonalLoop=1;jettySize=auto;html=1;" parent="1" source="z4E-oc9OXk6ii_VcmhzM-5" target="z4E-oc9OXk6ii_VcmhzM-10" edge="1">
          <mxGeometry relative="1" as="geometry">
            <Array as="points">
              <mxPoint x="560" y="310" />
            </Array>
          </mxGeometry>
        </mxCell>
        <mxCell id="z4E-oc9OXk6ii_VcmhzM-5" value="Chunk" style="rounded=1;whiteSpace=wrap;html=1;fillColor=#60a917;fontColor=#ffffff;strokeColor=#2D7600;" parent="1" vertex="1">
          <mxGeometry x="520" y="200" width="80" height="40" as="geometry" />
        </mxCell>
        <mxCell id="z4E-oc9OXk6ii_VcmhzM-16" style="edgeStyle=orthogonalEdgeStyle;rounded=0;orthogonalLoop=1;jettySize=auto;html=1;entryX=0.5;entryY=0;entryDx=0;entryDy=0;" parent="1" source="z4E-oc9OXk6ii_VcmhzM-10" target="z4E-oc9OXk6ii_VcmhzM-15" edge="1">
          <mxGeometry relative="1" as="geometry" />
        </mxCell>
        <mxCell id="z4E-oc9OXk6ii_VcmhzM-10" value="Metadata" style="ellipse;whiteSpace=wrap;html=1;fillColor=#f8cecc;strokeColor=#b85450;" parent="1" vertex="1">
          <mxGeometry x="320" y="280" width="120" height="60" as="geometry" />
        </mxCell>
        <mxCell id="z4E-oc9OXk6ii_VcmhzM-15" value="Vector Database" style="rounded=0;whiteSpace=wrap;html=1;fillColor=#e1d5e7;strokeColor=#9673a6;" parent="1" vertex="1">
          <mxGeometry x="320" y="400" width="120" height="40" as="geometry" />
        </mxCell>
        <mxCell id="z4E-oc9OXk6ii_VcmhzM-21" style="edgeStyle=orthogonalEdgeStyle;rounded=0;orthogonalLoop=1;jettySize=auto;html=1;entryX=0.5;entryY=0;entryDx=0;entryDy=0;" parent="1" source="z4E-oc9OXk6ii_VcmhzM-19" target="z4E-oc9OXk6ii_VcmhzM-20" edge="1">
          <mxGeometry relative="1" as="geometry" />
        </mxCell>
        <mxCell id="z4E-oc9OXk6ii_VcmhzM-19" value="SampleDatabase" style="rounded=0;whiteSpace=wrap;html=1;fillColor=#e1d5e7;strokeColor=#9673a6;" parent="1" vertex="1">
          <mxGeometry x="630" y="120" width="120" height="40" as="geometry" />
        </mxCell>
        <mxCell id="z4E-oc9OXk6ii_VcmhzM-20" value="RowId" style="rounded=1;whiteSpace=wrap;html=1;fillColor=#d5e8d4;strokeColor=#82b366;" parent="1" vertex="1">
          <mxGeometry x="650" y="200" width="80" height="40" as="geometry" />
        </mxCell>
        <mxCell id="z4E-oc9OXk6ii_VcmhzM-22" value="Metadata" style="ellipse;whiteSpace=wrap;html=1;fillColor=#f8cecc;strokeColor=#b85450;" parent="1" vertex="1">
          <mxGeometry x="790" y="190" width="120" height="60" as="geometry" />
        </mxCell>
        <mxCell id="z4E-oc9OXk6ii_VcmhzM-23" value="" style="endArrow=none;html=1;rounded=0;entryX=0;entryY=0.5;entryDx=0;entryDy=0;exitX=1;exitY=0.5;exitDx=0;exitDy=0;" parent="1" source="z4E-oc9OXk6ii_VcmhzM-20" target="z4E-oc9OXk6ii_VcmhzM-22" edge="1">
          <mxGeometry width="50" height="50" relative="1" as="geometry">
            <mxPoint x="560" y="450" as="sourcePoint" />
            <mxPoint x="610" y="400" as="targetPoint" />
          </mxGeometry>
        </mxCell>
        <mxCell id="z4E-oc9OXk6ii_VcmhzM-24" value="MetadataDatabase" style="rounded=0;whiteSpace=wrap;html=1;fillColor=#e1d5e7;strokeColor=#9673a6;" parent="1" vertex="1">
          <mxGeometry x="700" y="330" width="120" height="40" as="geometry" />
        </mxCell>
        <mxCell id="z4E-oc9OXk6ii_VcmhzM-25" value="" style="endArrow=classic;html=1;rounded=0;entryX=0.5;entryY=0;entryDx=0;entryDy=0;" parent="1" target="z4E-oc9OXk6ii_VcmhzM-24" edge="1">
          <mxGeometry width="50" height="50" relative="1" as="geometry">
            <mxPoint x="760" y="220" as="sourcePoint" />
            <mxPoint x="610" y="400" as="targetPoint" />
          </mxGeometry>
        </mxCell>
        <mxCell id="guNf9ZAGSFCjxj35d0uL-1" value="Chunking Methodlogy" style="text;html=1;strokeColor=none;fillColor=none;align=left;verticalAlign=middle;whiteSpace=wrap;rounded=0;fontColor=#999999;fontStyle=2" vertex="1" parent="1">
          <mxGeometry x="160" y="450" width="190" height="30" as="geometry" />
        </mxCell>
        <mxCell id="guNf9ZAGSFCjxj35d0uL-2" value="" style="rounded=0;whiteSpace=wrap;html=1;fillColor=none;" vertex="1" parent="1">
          <mxGeometry x="130" y="80" width="800" height="410" as="geometry" />
        </mxCell>
      </root>
    </mxGraphModel>
  </diagram>
</mxfile>
